<mxfile host="app.diagrams.net" modified="2021-05-28T21:38:12.633Z" agent="5.0 (Macintosh; Intel Mac OS X 10_15_7) AppleWebKit/537.36 (KHTML, like Gecko) Chrome/90.0.4430.72 Safari/537.36" etag="9GLbH8zCQe4Z7wf7CezY" version="14.7.2" type="github">
  <diagram id="g6HB62z85KySKQpb8Y-L" name="Page-1">
    <mxGraphModel dx="946" dy="1746" grid="1" gridSize="10" guides="1" tooltips="1" connect="1" arrows="1" fold="1" page="1" pageScale="1" pageWidth="850" pageHeight="1100" math="0" shadow="0">
      <root>
        <mxCell id="0" />
        <mxCell id="1" parent="0" />
        <mxCell id="ayfnRFkWcvxYADQbXUQ3-1" value="Genre" style="rounded=1;whiteSpace=wrap;html=1;" vertex="1" parent="1">
          <mxGeometry x="50" y="-150" width="120" height="60" as="geometry" />
        </mxCell>
        <mxCell id="ayfnRFkWcvxYADQbXUQ3-2" value="Artists" style="rounded=1;whiteSpace=wrap;html=1;" vertex="1" parent="1">
          <mxGeometry x="240" y="-190" width="120" height="60" as="geometry" />
        </mxCell>
        <mxCell id="ayfnRFkWcvxYADQbXUQ3-3" value="Song" style="rounded=1;whiteSpace=wrap;html=1;" vertex="1" parent="1">
          <mxGeometry x="330" y="-310" width="120" height="60" as="geometry" />
        </mxCell>
        <mxCell id="ayfnRFkWcvxYADQbXUQ3-11" value="Comments" style="rounded=1;whiteSpace=wrap;html=1;" vertex="1" parent="1">
          <mxGeometry x="660" y="-290" width="120" height="60" as="geometry" />
        </mxCell>
        <mxCell id="ayfnRFkWcvxYADQbXUQ3-12" value="Description" style="rounded=1;whiteSpace=wrap;html=1;" vertex="1" parent="1">
          <mxGeometry x="510" y="-340" width="120" height="60" as="geometry" />
        </mxCell>
        <mxCell id="ayfnRFkWcvxYADQbXUQ3-14" value="" style="edgeStyle=entityRelationEdgeStyle;fontSize=12;html=1;endArrow=ERoneToMany;entryX=0;entryY=0.5;entryDx=0;entryDy=0;" edge="1" parent="1" target="ayfnRFkWcvxYADQbXUQ3-2">
          <mxGeometry width="100" height="100" relative="1" as="geometry">
            <mxPoint x="170" y="-120" as="sourcePoint" />
            <mxPoint x="270" y="-220" as="targetPoint" />
          </mxGeometry>
        </mxCell>
        <mxCell id="ayfnRFkWcvxYADQbXUQ3-15" value="" style="edgeStyle=entityRelationEdgeStyle;fontSize=12;html=1;endArrow=ERoneToMany;exitX=0.5;exitY=0;exitDx=0;exitDy=0;entryX=0;entryY=0.25;entryDx=0;entryDy=0;" edge="1" parent="1" source="ayfnRFkWcvxYADQbXUQ3-1" target="ayfnRFkWcvxYADQbXUQ3-3">
          <mxGeometry width="100" height="100" relative="1" as="geometry">
            <mxPoint x="100" y="-130" as="sourcePoint" />
            <mxPoint x="370" y="-260" as="targetPoint" />
          </mxGeometry>
        </mxCell>
        <mxCell id="ayfnRFkWcvxYADQbXUQ3-16" value="" style="edgeStyle=entityRelationEdgeStyle;fontSize=12;html=1;endArrow=ERoneToMany;exitX=0.5;exitY=0;exitDx=0;exitDy=0;entryX=0;entryY=0.75;entryDx=0;entryDy=0;" edge="1" parent="1" source="ayfnRFkWcvxYADQbXUQ3-2" target="ayfnRFkWcvxYADQbXUQ3-3">
          <mxGeometry width="100" height="100" relative="1" as="geometry">
            <mxPoint x="320" y="-120" as="sourcePoint" />
            <mxPoint x="420" y="-220" as="targetPoint" />
          </mxGeometry>
        </mxCell>
        <mxCell id="ayfnRFkWcvxYADQbXUQ3-19" value="" style="edgeStyle=entityRelationEdgeStyle;fontSize=12;html=1;endArrow=ERoneToMany;exitX=1;exitY=0.25;exitDx=0;exitDy=0;entryX=0;entryY=0.5;entryDx=0;entryDy=0;" edge="1" parent="1" source="ayfnRFkWcvxYADQbXUQ3-3" target="ayfnRFkWcvxYADQbXUQ3-12">
          <mxGeometry width="100" height="100" relative="1" as="geometry">
            <mxPoint x="510" y="-150" as="sourcePoint" />
            <mxPoint x="610" y="-250" as="targetPoint" />
          </mxGeometry>
        </mxCell>
        <mxCell id="ayfnRFkWcvxYADQbXUQ3-20" value="" style="edgeStyle=entityRelationEdgeStyle;fontSize=12;html=1;endArrow=ERoneToMany;entryX=0;entryY=0.25;entryDx=0;entryDy=0;exitX=1;exitY=0.75;exitDx=0;exitDy=0;" edge="1" parent="1" source="ayfnRFkWcvxYADQbXUQ3-3" target="ayfnRFkWcvxYADQbXUQ3-11">
          <mxGeometry width="100" height="100" relative="1" as="geometry">
            <mxPoint x="490" y="-230" as="sourcePoint" />
            <mxPoint x="590" y="-330" as="targetPoint" />
          </mxGeometry>
        </mxCell>
        <mxCell id="ayfnRFkWcvxYADQbXUQ3-21" value="" style="edgeStyle=entityRelationEdgeStyle;fontSize=12;html=1;endArrow=ERoneToMany;exitX=1;exitY=0.25;exitDx=0;exitDy=0;" edge="1" parent="1" source="ayfnRFkWcvxYADQbXUQ3-2">
          <mxGeometry width="100" height="100" relative="1" as="geometry">
            <mxPoint x="320" y="-120" as="sourcePoint" />
            <mxPoint x="510" y="-295" as="targetPoint" />
          </mxGeometry>
        </mxCell>
        <mxCell id="ayfnRFkWcvxYADQbXUQ3-23" value="" style="edgeStyle=entityRelationEdgeStyle;fontSize=12;html=1;endArrow=ERoneToMany;entryX=0.008;entryY=0.633;entryDx=0;entryDy=0;entryPerimeter=0;" edge="1" parent="1" target="ayfnRFkWcvxYADQbXUQ3-11">
          <mxGeometry width="100" height="100" relative="1" as="geometry">
            <mxPoint x="360" y="-150" as="sourcePoint" />
            <mxPoint x="460" y="-250" as="targetPoint" />
          </mxGeometry>
        </mxCell>
      </root>
    </mxGraphModel>
  </diagram>
</mxfile>
